# xmcd
#
# Track frame offsets:
#       150
#       21464
#       42499
#       59938
#       79914
#       104641
#       116390
#       136184
#       150113
#       174790
#
# Disc length: 2611 seconds
#
# Revision: 1
# Processed by: cddbd v1.4PL0 Copyright (c) Steve Scherf et al.
# Submitted via: CD-DA_X-Tractor v0.23
#
DISCID=800a310a
DTITLE=gravenhurst - flashlight seasons
DYEAR=2003
DGENRE=folk singer
TTITLE0=tunnels
TTITLE1=fog round the figurehead
TTITLE2=i turn my face to the forest floor
TTITLE3=bluebeard
TTITLE4=the diver
TTITLE5=east of the city
TTITLE6=damage
TTITLE7=damage II
TTITLE8=the ice tree
TTITLE9=hopechapel hill
EXTD=
EXTT0=
EXTT1=
EXTT2=
EXTT3=
EXTT4=
EXTT5=
EXTT6=
EXTT7=
EXTT8=
EXTT9=
PLAYORDER=
